Coordinates
version=1
nRows=60
nColumns=12
inDegrees=yes

Units are S.I. units (second, meters, Newtons, ...)
Angles are in degrees

endheader
time	SC_y	SC_z	SC_x	AC_y	AC_z	AC_x	GH_y	GH_z	GH_yy	EL_x	PS_y
       0.0              -26.07          8.383          46.44          53.85         -6.503          -7.07          7.441          76.69          131.5          43.19          41.61
   0.01396              -26.08          8.384          46.45          53.85         -6.504         -7.069          7.453          76.68          131.5          43.19          41.62
   0.02793              -26.08          8.385          46.45          53.85         -6.504         -7.068          7.466          76.67          131.5          43.19          41.64
   0.04189              -26.08          8.386          46.45          53.85         -6.505         -7.067          7.479          76.66          131.5          43.19          41.65
   0.05585              -26.08          8.387          46.46          53.85         -6.506         -7.066          7.493          76.65          131.5          43.19          41.67
   0.06981              -26.09          8.388          46.46          53.85         -6.506         -7.065          7.509          76.64          131.5          43.19          41.68
   0.08378              -26.09           8.39          46.47          53.85         -6.507         -7.064          7.525          76.63          131.5          43.19           41.7
   0.09774              -26.09          8.391          46.47          53.85         -6.508         -7.063          7.542          76.62          131.5           43.2          41.72
    0.1117               -26.1          8.393          46.48          53.85         -6.509         -7.062          7.561           76.6          131.5           43.2          41.74
    0.1257               -26.1          8.394          46.48          53.85          -6.51          -7.06          7.581          76.59          131.5           43.2          41.76
    0.1396              -26.11          8.396          46.49          53.85         -6.511         -7.059          7.602          76.57          131.5           43.2          41.78
    0.1536              -26.11          8.398          46.49          53.85         -6.512         -7.057          7.625          76.56          131.5           43.2           41.8
    0.1676              -26.12            8.4           46.5          53.85         -6.513         -7.055           7.65          76.54          131.5           43.2          41.83
    0.1815              -26.12          8.402          46.51          53.85         -6.514         -7.053          7.677          76.52          131.6          43.21          41.86
    0.1955              -26.13          8.405          46.51          53.85         -6.515         -7.051          7.706           76.5          131.6          43.21          41.89
    0.2094              -26.13          8.407          46.52          53.84         -6.517         -7.049          7.738          76.48          131.6          43.21          41.92
    0.2234              -26.14           8.41          46.53          53.84         -6.519         -7.047          7.772          76.45          131.6          43.21          41.96
    0.2374              -26.15          8.413          46.54          53.84          -6.52         -7.044          7.809          76.43          131.6          43.22           42.0
    0.2513              -26.16          8.417          46.55          53.84         -6.522         -7.042           7.85           76.4          131.6          43.22          42.04
    0.2653              -26.17           8.42          46.56          53.84         -6.524         -7.039          7.895          76.36          131.6          43.22          42.09
    0.2793              -26.18          8.424          46.58          53.84         -6.526         -7.035          7.944          76.33          131.6          43.23          42.14
    0.2932              -26.19          8.429          46.59          53.84         -6.529         -7.031          7.998          76.29          131.6          43.23           42.2
    0.3072               -26.2          8.434          46.61          53.84         -6.532         -7.027          8.057          76.25          131.6          43.24          42.26
    0.3211              -26.21          8.439          46.63          53.84         -6.535         -7.023          8.123           76.2          131.6          43.24          42.33
    0.3351              -26.23          8.445          46.64          53.84         -6.538         -7.018          8.197          76.15          131.7          43.25           42.4
    0.3491              -26.24          8.452          46.67          53.83         -6.542         -7.012          8.279          76.09          131.7          43.26          42.49
     0.363              -26.26          8.459          46.69          53.83         -6.546         -7.006           8.37          76.02          131.7          43.26          42.59
     0.377              -26.28          8.468          46.72          53.83         -6.551         -6.999          8.474          75.95          131.7          43.27          42.69
     0.391              -26.31          8.478          46.75          53.83         -6.556         -6.991           8.59          75.86          131.7          43.28          42.82
    0.4049              -26.33          8.489          46.78          53.82         -6.562         -6.981          8.723          75.77          131.8          43.29          42.96
    0.4189              -26.36          8.501          46.82          53.82         -6.569         -6.971          8.874          75.66          131.8           43.3          43.11
    0.4328               -26.4          8.515          46.87          53.82         -6.577         -6.959          9.047          75.54          131.8          43.32           43.3
    0.4468              -26.44          8.532          46.92          53.81         -6.587         -6.945          9.247          75.39          131.9          43.33          43.51
    0.4608              -26.49          8.551          46.99          53.81         -6.597         -6.929           9.48          75.23          131.9          43.35          43.75
    0.4747              -26.54          8.573          47.06           53.8          -6.61         -6.911          9.752          75.03          132.0          43.38          44.03
    0.4887              -26.61            8.6          47.14           53.8         -6.625         -6.888          10.07           74.8          132.1           43.4          44.37
    0.5027              -26.69          8.631          47.25          53.79         -6.642         -6.862          10.45          74.53          132.1          43.43          44.77
    0.5166              -26.78          8.669          47.37          53.78         -6.663         -6.831          10.91           74.2          132.2          43.47          45.25
    0.5306              -26.89          8.715          47.51          53.77         -6.689         -6.793          11.46           73.8          132.4          43.51          45.83
    0.5445              -27.03           8.77          47.69          53.75          -6.72         -6.746          12.14          73.31          132.5          43.57          46.54
    0.5585               -27.2          8.839          47.92          53.74         -6.759         -6.689          12.97          72.72          132.7          43.64          47.41
    0.5725              -27.41          8.925          48.19          53.71         -6.807         -6.617          14.01          71.97          132.9          43.72           48.5
    0.5864              -27.68          9.033          48.54          53.69         -6.867         -6.527          15.32          71.03          133.2          43.83          49.88
    0.6004              -28.02           9.17          48.98          53.65         -6.944         -6.412          16.99          69.83          133.6          43.96          51.62
    0.6144              -28.45          9.345          49.55          53.61         -7.042         -6.265          19.12           68.3          134.0          44.14          53.86
    0.6283              -29.01          9.571          50.28          53.55         -7.169         -6.077          21.86          66.34          134.6          44.36          56.72
    0.6423              -29.72          9.859          51.21          53.48          -7.33         -5.836          25.35          63.83          135.4          44.64          60.39
    0.6562              -30.62          10.22          52.38          53.38         -7.533         -5.533          29.74          60.67          136.3           45.0          64.99
    0.6702              -31.71          10.66           53.8          53.27          -7.78         -5.165           35.1          56.83          137.5          45.43          70.61
    0.6842              -32.98          11.17          55.45          53.14         -8.067         -4.737           41.3          52.37          138.8          45.93          77.11
    0.6981              -34.35          11.73          57.24           53.0         -8.377         -4.274          48.02          47.55          140.2          46.48          84.16
    0.7121              -35.72          12.28          59.02          52.86         -8.687         -3.812          54.74          42.72          141.7          47.02           91.2
    0.7261              -36.98          12.79          60.68          52.73         -8.973         -3.384          60.95          38.27          143.0          47.53          97.71
      0.74              -38.07          13.23           62.1          52.62         -9.221         -3.015           66.3          34.42          144.2          47.96          103.3
     0.754              -38.97           13.6          63.27          52.53         -9.423         -2.713          70.69          31.27          145.1          48.32          107.9
    0.7679              -39.68          13.88           64.2          52.45         -9.585         -2.472          74.19          28.76          145.9           48.6          111.6
    0.7819              -40.24          14.11          64.92           52.4         -9.711         -2.284          76.92          26.79          146.5          48.82          114.5
    0.7959              -40.67          14.28          65.49          52.35         -9.809         -2.137          79.05          25.26          146.9           49.0          116.7
    0.8098              -41.01          14.42          65.93          52.32         -9.886         -2.022          80.72          24.07          147.3          49.13          118.4
    0.8238              -41.28          14.53          66.28          52.29         -9.947         -1.932          82.03          23.13          147.6          49.24          119.8
